<?xml version="1.0" encoding="UTF-8"?>
<svg xmlns="http://www.w3.org/2000/svg" viewBox="0 0 320 320">
  <!-- Wusel "W" mark (path from the Wusel logo, matches carekosmos-two), lavender-500 #8a8ef6.
       True path bbox is x:0-273, y:103-306; translate centers it in the 320x320 square. -->
  <path fill="#8a8ef6" transform="translate(23.5 -44.5)" d="M255.7,104.2c-2.9-1.1-6-.8-8.7.8-5.1,2.9-9.2,6.5-12.2,10.6-6.2,8.1-11.3,15.3-15.2,21.6-4,6.4-7.3,12.8-9.9,18.9-2.5,5.8-5.2,12.4-8.3,19.9-3.3,8.5-6.4,15.8-9.2,21.7-2.8,6-5.4,11.1-7.8,15.2l-1.4,2.5c-1.8-3-3.5-6-5.1-9-3.4-6.3-6.4-12.8-9.1-19.4-5.8-13.9-15.9-28.7-30.2-43.9l-1.1-.8-2.5-1.1-1.4-.3c-12.4,0-23,6.1-31.7,18.1-2.4,3.4-5.5,8.9-9.7,16.9-4,7.8-9,17.9-14.7,30-.8,1.5-1.6,3.7-2.4,6.5l-3,9.7c-.3.9-.6,1.8-.8,2.7-2.6-4.4-5.1-9.7-7.6-15.5-2.8-6.6-5.1-13-6.8-19.2-2.1-7.2-2.5-10.7-2.5-12.5-.3-8.8-1-15.5-2-20.3-1.3-6.1-5.8-12.2-14-19-4.7-3.4-9.5-5.1-14.3-5.1s-10,2.8-12.1,5.4C4.2,143.7,0,151,0,159.7s.2,2.1.3,3c.2,1,.4,2.3.7,4,4.6,20.6,9.7,40.7,15.2,59.9,2.8,9.1,6.1,18.5,9.8,27.9,3.8,9.8,8.6,18.8,14,26.7,5.8,8.4,13,14.8,21.4,19.1,9.5,4.4,14.1,5.3,16.9,5.3s.9,0,1.3,0c9,0,21.5-4.9,30.5-27.4v-.2c2.2-6.3,5-14.8,8.2-25.3,2.2-7.3,4.9-15.9,7.9-25.4,1.4,2.3,2.8,4.7,4.2,7.1,3.8,7,7.5,14,11.2,20.9,3.9,7.3,8.1,13.6,12.6,18.7,5.2,6,11.2,9.5,17.7,10.3,1.5.3,3.4.6,5.5.7,2,.2,4.2.3,6.5.3l1.2-.2,2.3-.9,1.1-.6c20.6-18.3,37.2-34.9,49.3-49.5,12.4-15,21.4-30.7,26.8-46.8,5.4-16,8.1-34.7,8.1-55.5l-.4-2.4c-7.3-19.3-12.5-23.5-16.7-25Z"/>
</svg>
